<mxfile host="65bd71144e">
    <diagram id="Ofe4pAhiQm8Qe8LomHSK" name="archi">
        <mxGraphModel dx="1123" dy="806" grid="0" gridSize="10" guides="1" tooltips="1" connect="1" arrows="1" fold="1" page="1" pageScale="1" pageWidth="827" pageHeight="1169" background="none" math="0" shadow="0">
            <root>
                <mxCell id="0"/>
                <mxCell id="1" parent="0"/>
                <mxCell id="83" value="" style="shape=link;html=1;fontSize=12;startArrow=none;startFill=0;endArrow=none;endFill=0;strokeWidth=1;" edge="1" parent="1">
                    <mxGeometry width="100" relative="1" as="geometry">
                        <mxPoint x="265" y="906" as="sourcePoint"/>
                        <mxPoint x="265" y="66" as="targetPoint"/>
                    </mxGeometry>
                </mxCell>
                <mxCell id="21" value="&lt;b style=&quot;font-size: 16px&quot;&gt;&lt;font style=&quot;font-size: 16px&quot;&gt;J2EE MetaindeX WebApp&amp;nbsp;&lt;br&gt;&lt;br&gt;&lt;br&gt;&lt;br&gt;&lt;br&gt;&lt;br&gt;&lt;br&gt;&lt;br&gt;&lt;br&gt;&lt;br&gt;&lt;br&gt;&lt;br&gt;&lt;br&gt;&lt;br&gt;&lt;br&gt;&lt;br&gt;&lt;br&gt;&lt;br&gt;&lt;br&gt;&lt;br&gt;&lt;br&gt;&lt;br&gt;&lt;br&gt;&lt;br&gt;&lt;br&gt;&lt;br&gt;&lt;/font&gt;&lt;/b&gt;&lt;div style=&quot;font-size: 16px&quot;&gt;&lt;br&gt;&lt;/div&gt;" style="shape=folder;tabWidth=80;tabHeight=20;tabPosition=left;strokeWidth=2;html=1;whiteSpace=wrap;align=right;" vertex="1" parent="1">
                    <mxGeometry x="343" y="224" width="456" height="560" as="geometry"/>
                </mxCell>
                <mxCell id="69" value="WSControllerXXX" style="swimlane;fontStyle=0;childLayout=stackLayout;horizontal=1;startSize=30;horizontalStack=0;resizeParent=1;resizeParentMax=0;resizeLast=0;collapsible=1;marginBottom=0;" vertex="1" collapsed="1" parent="1">
                    <mxGeometry x="414" y="373" width="122" height="30" as="geometry">
                        <mxRectangle x="409" y="264" width="150" height="92" as="alternateBounds"/>
                    </mxGeometry>
                </mxCell>
                <mxCell id="65" value="WSControllerXXX" style="swimlane;fontStyle=0;childLayout=stackLayout;horizontal=1;startSize=30;horizontalStack=0;resizeParent=1;resizeParentMax=0;resizeLast=0;collapsible=1;marginBottom=0;" vertex="1" collapsed="1" parent="1">
                    <mxGeometry x="420" y="380" width="122" height="30" as="geometry">
                        <mxRectangle x="400" y="215" width="150" height="92" as="alternateBounds"/>
                    </mxGeometry>
                </mxCell>
                <mxCell id="60" value="&lt;p style=&quot;margin: 10px 0px 0px ; text-align: center&quot;&gt;AMetaindexBean&lt;br&gt;&lt;/p&gt;&lt;p style=&quot;margin: 10px 0px 0px ; text-align: center&quot;&gt;&lt;b&gt;&lt;i&gt;BeanXXX&lt;/i&gt;&lt;/b&gt;&lt;/p&gt;&lt;hr&gt;&lt;p style=&quot;margin: 0px ; margin-top: 4px ; margin-left: 4px ; text-align: left&quot;&gt;&lt;br&gt;&lt;/p&gt;" style="shape=rect;html=1;overflow=fill;whiteSpace=wrap;" vertex="1" parent="1">
                    <mxGeometry x="667" y="328" width="110" height="80" as="geometry"/>
                </mxCell>
                <mxCell id="59" value="&lt;p style=&quot;margin: 10px 0px 0px ; text-align: center&quot;&gt;AMetaindexBean&lt;br&gt;&lt;/p&gt;&lt;p style=&quot;margin: 10px 0px 0px ; text-align: center&quot;&gt;&lt;b&gt;&lt;i&gt;BeanXXX&lt;/i&gt;&lt;/b&gt;&lt;/p&gt;&lt;hr&gt;&lt;p style=&quot;margin: 0px ; margin-top: 4px ; margin-left: 4px ; text-align: left&quot;&gt;&lt;br&gt;&lt;/p&gt;" style="shape=rect;html=1;overflow=fill;whiteSpace=wrap;" vertex="1" parent="1">
                    <mxGeometry x="657" y="318" width="110" height="80" as="geometry"/>
                </mxCell>
                <mxCell id="2" value="User" style="shape=umlActor;verticalLabelPosition=bottom;verticalAlign=top;html=1;outlineConnect=0;" vertex="1" parent="1">
                    <mxGeometry x="29" y="408" width="30" height="60" as="geometry"/>
                </mxCell>
                <mxCell id="3" value="Web IHM MetaindeX" style="swimlane;" vertex="1" parent="1">
                    <mxGeometry x="89" y="378" width="169" height="110" as="geometry">
                        <mxRectangle x="80" y="200" width="50" height="23" as="alternateBounds"/>
                    </mxGeometry>
                </mxCell>
                <mxCell id="4" value="HTML5&lt;br&gt;Javacsript" style="text;html=1;align=center;verticalAlign=middle;resizable=0;points=[];autosize=1;strokeColor=none;fillColor=none;" vertex="1" parent="1">
                    <mxGeometry x="114" y="433" width="70" height="30" as="geometry"/>
                </mxCell>
                <mxCell id="5" value="WSControllerXXX" style="swimlane;fontStyle=0;childLayout=stackLayout;horizontal=1;startSize=30;horizontalStack=0;resizeParent=1;resizeParentMax=0;resizeLast=0;collapsible=1;marginBottom=0;" vertex="1" parent="1">
                    <mxGeometry x="429" y="388" width="150" height="120" as="geometry">
                        <mxRectangle x="420" y="210" width="122" height="30" as="alternateBounds"/>
                    </mxGeometry>
                </mxCell>
                <mxCell id="6" value="handleXRequests(MsgX)" style="text;strokeColor=none;fillColor=none;align=left;verticalAlign=middle;spacingLeft=4;spacingRight=4;overflow=hidden;points=[[0,0.5],[1,0.5]];portConstraint=eastwest;rotatable=0;" vertex="1" parent="5">
                    <mxGeometry y="30" width="150" height="30" as="geometry"/>
                </mxCell>
                <mxCell id="7" value="handleYRequests(MsgY)" style="text;strokeColor=none;fillColor=none;align=left;verticalAlign=middle;spacingLeft=4;spacingRight=4;overflow=hidden;points=[[0,0.5],[1,0.5]];portConstraint=eastwest;rotatable=0;" vertex="1" parent="5">
                    <mxGeometry y="60" width="150" height="30" as="geometry"/>
                </mxCell>
                <mxCell id="8" value="..." style="text;strokeColor=none;fillColor=none;align=left;verticalAlign=middle;spacingLeft=4;spacingRight=4;overflow=hidden;points=[[0,0.5],[1,0.5]];portConstraint=eastwest;rotatable=0;" vertex="1" parent="5">
                    <mxGeometry y="90" width="150" height="30" as="geometry"/>
                </mxCell>
                <mxCell id="20" style="edgeStyle=none;html=1;entryX=1;entryY=0;entryDx=0;entryDy=0;startArrow=none;startFill=0;endArrow=classicThin;endFill=1;strokeWidth=2;fillColor=#0050ef;strokeColor=#001DBC;" edge="1" parent="1" source="10" target="3">
                    <mxGeometry relative="1" as="geometry"/>
                </mxCell>
                <mxCell id="77" value="HTTP" style="edgeLabel;html=1;align=center;verticalAlign=middle;resizable=0;points=[];fontSize=12;" vertex="1" connectable="0" parent="20">
                    <mxGeometry x="0.0179" y="-2" relative="1" as="geometry">
                        <mxPoint as="offset"/>
                    </mxGeometry>
                </mxCell>
                <mxCell id="10" value="HTML&lt;br&gt;(.jsp)" style="shape=note;whiteSpace=wrap;html=1;backgroundOutline=1;darkOpacity=0.05;size=12;" vertex="1" parent="1">
                    <mxGeometry x="364" y="316" width="40" height="50" as="geometry"/>
                </mxCell>
                <mxCell id="17" style="edgeStyle=none;html=1;entryX=0;entryY=0;entryDx=40;entryDy=31;entryPerimeter=0;endArrow=diamond;endFill=0;" edge="1" parent="1" source="15" target="10">
                    <mxGeometry relative="1" as="geometry"/>
                </mxCell>
                <mxCell id="15" value="&lt;p style=&quot;margin: 10px 0px 0px ; text-align: center&quot;&gt;AMetaindexBean&lt;br&gt;&lt;/p&gt;&lt;p style=&quot;margin: 10px 0px 0px ; text-align: center&quot;&gt;&lt;b&gt;&lt;i&gt;BeanXXX&lt;/i&gt;&lt;/b&gt;&lt;/p&gt;&lt;hr&gt;&lt;p style=&quot;margin: 0px ; margin-top: 4px ; margin-left: 4px ; text-align: left&quot;&gt;&lt;br&gt;&lt;/p&gt;" style="shape=rect;html=1;overflow=fill;whiteSpace=wrap;" vertex="1" parent="1">
                    <mxGeometry x="647" y="308" width="110" height="80" as="geometry"/>
                </mxCell>
                <mxCell id="18" style="edgeStyle=none;html=1;endArrow=classicThin;endFill=1;strokeWidth=2;fillColor=#60a917;strokeColor=#2D7600;startArrow=blockThin;startFill=1;" edge="1" parent="1" source="16" target="7">
                    <mxGeometry relative="1" as="geometry"/>
                </mxCell>
                <mxCell id="19" value="WebSockets&lt;br&gt;(HTTP)" style="edgeLabel;html=1;align=center;verticalAlign=middle;resizable=0;points=[];" vertex="1" connectable="0" parent="18">
                    <mxGeometry x="-0.0255" y="-4" relative="1" as="geometry">
                        <mxPoint as="offset"/>
                    </mxGeometry>
                </mxCell>
                <mxCell id="16" value="metaindex.js&lt;br&gt;&lt;font style=&quot;font-size: 9px&quot; color=&quot;#a6a6a6&quot;&gt;&lt;i&gt;WebSockets API&lt;/i&gt;&lt;/font&gt;" style="shape=note;whiteSpace=wrap;html=1;backgroundOutline=1;darkOpacity=0.05;size=12;" vertex="1" parent="1">
                    <mxGeometry x="204" y="426" width="40" height="50" as="geometry"/>
                </mxCell>
                <mxCell id="22" value="&lt;b style=&quot;font-size: 16px&quot;&gt;&lt;font style=&quot;font-size: 16px&quot;&gt;elasticsearch &lt;br&gt;Documents DB&lt;br&gt;&lt;/font&gt;&lt;/b&gt;" style="shape=folder;tabWidth=80;tabHeight=20;tabPosition=left;strokeWidth=2;html=1;whiteSpace=wrap;align=center;" vertex="1" parent="1">
                    <mxGeometry x="525" y="913" width="190" height="90" as="geometry"/>
                </mxCell>
                <mxCell id="82" style="edgeStyle=none;html=1;entryX=0;entryY=0;entryDx=0;entryDy=55;entryPerimeter=0;fontSize=12;startArrow=openThin;startFill=0;endArrow=none;endFill=0;strokeWidth=1;" edge="1" parent="1" source="23" target="22">
                    <mxGeometry relative="1" as="geometry"/>
                </mxCell>
                <mxCell id="23" value="&lt;b style=&quot;font-size: 16px&quot;&gt;&lt;font style=&quot;font-size: 16px&quot;&gt;Kibana WebApp&lt;br&gt;Statistics Module&lt;br&gt;&lt;/font&gt;&lt;/b&gt;" style="shape=folder;tabWidth=80;tabHeight=20;tabPosition=left;strokeWidth=2;html=1;whiteSpace=wrap;align=center;" vertex="1" parent="1">
                    <mxGeometry x="343" y="798" width="190" height="90" as="geometry"/>
                </mxCell>
                <mxCell id="29" style="edgeStyle=none;html=1;entryX=0.5;entryY=1;entryDx=0;entryDy=0;fontSize=16;startArrow=none;startFill=0;endArrow=none;endFill=0;strokeWidth=1;exitX=0.608;exitY=0.23;exitDx=0;exitDy=0;exitPerimeter=0;dashed=1;" edge="1" parent="1" source="24" target="26">
                    <mxGeometry relative="1" as="geometry"/>
                </mxCell>
                <mxCell id="88" value="JDBC" style="edgeLabel;html=1;align=center;verticalAlign=middle;resizable=0;points=[];fontSize=9;fontColor=#A6A6A6;" vertex="1" connectable="0" parent="29">
                    <mxGeometry x="-0.0837" relative="1" as="geometry">
                        <mxPoint as="offset"/>
                    </mxGeometry>
                </mxCell>
                <mxCell id="24" value="&lt;b style=&quot;font-size: 16px&quot;&gt;&lt;font style=&quot;font-size: 16px&quot;&gt;MySQL DB&lt;br&gt;Configuration &amp;amp; Users&lt;br&gt;&lt;/font&gt;&lt;/b&gt;" style="shape=folder;tabWidth=80;tabHeight=20;tabPosition=left;strokeWidth=2;html=1;whiteSpace=wrap;align=center;" vertex="1" parent="1">
                    <mxGeometry x="609" y="798" width="190" height="90" as="geometry"/>
                </mxCell>
                <mxCell id="31" style="edgeStyle=none;html=1;fontSize=16;startArrow=none;startFill=0;endArrow=none;endFill=0;strokeWidth=1;dashed=1;entryX=0.512;entryY=0.21;entryDx=0;entryDy=0;entryPerimeter=0;" edge="1" parent="1" source="25" target="24">
                    <mxGeometry relative="1" as="geometry">
                        <mxPoint x="744" y="818" as="targetPoint"/>
                    </mxGeometry>
                </mxCell>
                <mxCell id="87" value="JDBC" style="edgeLabel;html=1;align=center;verticalAlign=middle;resizable=0;points=[];fontSize=9;fontColor=#A6A6A6;" vertex="1" connectable="0" parent="31">
                    <mxGeometry x="-0.6464" y="-1" relative="1" as="geometry">
                        <mxPoint as="offset"/>
                    </mxGeometry>
                </mxCell>
                <mxCell id="48" style="edgeStyle=none;html=1;exitX=0.143;exitY=0;exitDx=0;exitDy=0;entryX=0.355;entryY=1;entryDx=0;entryDy=0;entryPerimeter=0;fontSize=8;startArrow=none;startFill=0;endArrow=diamond;endFill=0;strokeWidth=1;exitPerimeter=0;" edge="1" parent="1" source="25" target="15">
                    <mxGeometry relative="1" as="geometry"/>
                </mxCell>
                <mxCell id="51" value="1" style="edgeLabel;html=1;align=center;verticalAlign=middle;resizable=0;points=[];fontSize=8;" vertex="1" connectable="0" parent="48">
                    <mxGeometry x="0.0062" relative="1" as="geometry">
                        <mxPoint x="-10" y="154" as="offset"/>
                    </mxGeometry>
                </mxCell>
                <mxCell id="25" value="&lt;p style=&quot;margin: 10px 0px 0px ; text-align: center&quot;&gt;&lt;span&gt;&lt;i style=&quot;font-weight: bold&quot;&gt;UserProfile&lt;/i&gt;&lt;/span&gt;&lt;br&gt;&lt;/p&gt;&lt;hr&gt;&lt;p style=&quot;margin: 0px ; margin-top: 4px ; margin-left: 4px ; text-align: left&quot;&gt;&lt;br&gt;&lt;/p&gt;" style="shape=rect;html=1;overflow=fill;whiteSpace=wrap;" vertex="1" parent="1">
                    <mxGeometry x="619" y="678" width="70" height="45" as="geometry"/>
                </mxCell>
                <mxCell id="37" style="edgeStyle=none;html=1;entryX=0.25;entryY=0;entryDx=0;entryDy=0;fontSize=8;startArrow=none;startFill=0;endArrow=diamond;endFill=0;strokeWidth=1;" edge="1" parent="1" source="26" target="25">
                    <mxGeometry relative="1" as="geometry"/>
                </mxCell>
                <mxCell id="55" value="0..*" style="edgeLabel;html=1;align=center;verticalAlign=middle;resizable=0;points=[];fontSize=8;" vertex="1" connectable="0" parent="37">
                    <mxGeometry x="0.1817" relative="1" as="geometry">
                        <mxPoint x="18" y="-5" as="offset"/>
                    </mxGeometry>
                </mxCell>
                <mxCell id="56" value="1..*" style="edgeLabel;html=1;align=center;verticalAlign=middle;resizable=0;points=[];fontSize=8;" vertex="1" connectable="0" parent="37">
                    <mxGeometry x="0.0225" y="-3" relative="1" as="geometry">
                        <mxPoint x="-5" y="-3" as="offset"/>
                    </mxGeometry>
                </mxCell>
                <mxCell id="46" style="edgeStyle=none;html=1;entryX=0.5;entryY=1;entryDx=0;entryDy=0;fontSize=8;startArrow=none;startFill=0;endArrow=diamond;endFill=0;strokeWidth=1;" edge="1" parent="1" source="26" target="15">
                    <mxGeometry relative="1" as="geometry"/>
                </mxCell>
                <mxCell id="52" value="0..*" style="edgeLabel;html=1;align=center;verticalAlign=middle;resizable=0;points=[];fontSize=8;" vertex="1" connectable="0" parent="46">
                    <mxGeometry x="-0.2106" y="-2" relative="1" as="geometry">
                        <mxPoint y="93" as="offset"/>
                    </mxGeometry>
                </mxCell>
                <mxCell id="26" value="&lt;p style=&quot;margin: 10px 0px 0px ; text-align: center&quot;&gt;&lt;span&gt;&lt;i style=&quot;font-weight: bold&quot;&gt;Catalog&lt;/i&gt;&lt;/span&gt;&lt;br&gt;&lt;/p&gt;&lt;hr&gt;&lt;p style=&quot;margin: 0px ; margin-top: 4px ; margin-left: 4px ; text-align: left&quot;&gt;&lt;br&gt;&lt;/p&gt;" style="shape=rect;html=1;overflow=fill;whiteSpace=wrap;" vertex="1" parent="1">
                    <mxGeometry x="659" y="618" width="70" height="45" as="geometry"/>
                </mxCell>
                <mxCell id="30" style="edgeStyle=none;html=1;entryX=0;entryY=0;entryDx=135;entryDy=20;entryPerimeter=0;fontSize=16;startArrow=none;startFill=0;endArrow=none;endFill=0;strokeWidth=1;dashed=1;" edge="1" parent="1" source="28" target="24">
                    <mxGeometry relative="1" as="geometry"/>
                </mxCell>
                <mxCell id="89" value="JDBC" style="edgeLabel;html=1;align=center;verticalAlign=middle;resizable=0;points=[];fontSize=9;fontColor=#A6A6A6;" vertex="1" connectable="0" parent="30">
                    <mxGeometry x="-0.4417" y="-1" relative="1" as="geometry">
                        <mxPoint as="offset"/>
                    </mxGeometry>
                </mxCell>
                <mxCell id="36" style="edgeStyle=none;html=1;entryX=1;entryY=0.5;entryDx=0;entryDy=0;fontSize=8;startArrow=none;startFill=0;endArrow=diamond;endFill=1;strokeWidth=1;" edge="1" parent="1" source="28" target="26">
                    <mxGeometry relative="1" as="geometry"/>
                </mxCell>
                <mxCell id="53" value="0..*" style="edgeLabel;html=1;align=center;verticalAlign=middle;resizable=0;points=[];fontSize=8;" vertex="1" connectable="0" parent="36">
                    <mxGeometry x="-0.2686" y="-3" relative="1" as="geometry">
                        <mxPoint x="8" y="9" as="offset"/>
                    </mxGeometry>
                </mxCell>
                <mxCell id="54" value="1" style="edgeLabel;html=1;align=center;verticalAlign=middle;resizable=0;points=[];fontSize=8;" vertex="1" connectable="0" parent="36">
                    <mxGeometry x="-0.0755" y="-2" relative="1" as="geometry">
                        <mxPoint x="-4" y="-23" as="offset"/>
                    </mxGeometry>
                </mxCell>
                <mxCell id="47" style="edgeStyle=none;html=1;exitX=0.75;exitY=0;exitDx=0;exitDy=0;entryX=0.75;entryY=1;entryDx=0;entryDy=0;fontSize=8;startArrow=none;startFill=0;endArrow=diamond;endFill=0;strokeWidth=1;" edge="1" parent="1" source="28" target="15">
                    <mxGeometry relative="1" as="geometry"/>
                </mxCell>
                <mxCell id="28" value="&lt;p style=&quot;margin: 10px 0px 0px ; text-align: center&quot;&gt;&lt;span&gt;&lt;i style=&quot;font-weight: bold&quot;&gt;Term&lt;/i&gt;&lt;/span&gt;&lt;br&gt;&lt;/p&gt;&lt;hr&gt;&lt;p style=&quot;margin: 0px ; margin-top: 4px ; margin-left: 4px ; text-align: left&quot;&gt;&lt;br&gt;&lt;/p&gt;" style="shape=rect;html=1;overflow=fill;whiteSpace=wrap;" vertex="1" parent="1">
                    <mxGeometry x="719" y="678" width="70" height="45" as="geometry"/>
                </mxCell>
                <mxCell id="34" style="edgeStyle=none;html=1;entryX=0.5;entryY=1;entryDx=0;entryDy=0;fontSize=8;startArrow=none;startFill=0;endArrow=diamond;endFill=1;strokeWidth=1;" edge="1" parent="1">
                    <mxGeometry relative="1" as="geometry">
                        <mxPoint x="419" y="650" as="sourcePoint"/>
                        <mxPoint x="419" y="592" as="targetPoint"/>
                    </mxGeometry>
                </mxCell>
                <mxCell id="49" value="0..*" style="edgeLabel;html=1;align=center;verticalAlign=middle;resizable=0;points=[];fontSize=8;" vertex="1" connectable="0" parent="34">
                    <mxGeometry x="-0.0649" y="-3" relative="1" as="geometry">
                        <mxPoint x="-12" y="20" as="offset"/>
                    </mxGeometry>
                </mxCell>
                <mxCell id="50" value="1" style="edgeLabel;html=1;align=center;verticalAlign=middle;resizable=0;points=[];fontSize=8;" vertex="1" connectable="0" parent="34">
                    <mxGeometry x="0.0396" y="1" relative="1" as="geometry">
                        <mxPoint x="-8" y="-20" as="offset"/>
                    </mxGeometry>
                </mxCell>
                <mxCell id="32" value="&lt;p style=&quot;margin: 10px 0px 0px ; text-align: center&quot;&gt;&lt;span&gt;&lt;i style=&quot;font-weight: bold&quot;&gt;DbItem&lt;/i&gt;&lt;/span&gt;&lt;br&gt;&lt;/p&gt;&lt;hr&gt;&lt;p style=&quot;margin: 0px ; margin-top: 4px ; margin-left: 4px ; text-align: left&quot;&gt;&lt;font style=&quot;font-size: 8px&quot;&gt;getData(): Map&amp;lt;String,Object&amp;gt;&lt;/font&gt;&lt;/p&gt;" style="shape=rect;html=1;overflow=fill;whiteSpace=wrap;" vertex="1" parent="1">
                    <mxGeometry x="358" y="651" width="120" height="60" as="geometry"/>
                </mxCell>
                <mxCell id="35" style="edgeStyle=none;html=1;entryX=0;entryY=0;entryDx=40;entryDy=0;entryPerimeter=0;fontSize=8;startArrow=none;startFill=0;endArrow=none;endFill=0;strokeWidth=1;dashed=1;" edge="1" parent="1" source="92" target="22">
                    <mxGeometry relative="1" as="geometry"/>
                </mxCell>
                <mxCell id="86" value="ElesticSearch&lt;br&gt;REST API" style="edgeLabel;html=1;align=center;verticalAlign=middle;resizable=0;points=[];fontSize=9;fontColor=#A6A6A6;" vertex="1" connectable="0" parent="35">
                    <mxGeometry x="-0.1509" y="2" relative="1" as="geometry">
                        <mxPoint x="3" y="98" as="offset"/>
                    </mxGeometry>
                </mxCell>
                <mxCell id="38" style="edgeStyle=none;html=1;entryX=0.48;entryY=0.967;entryDx=0;entryDy=0;entryPerimeter=0;fontSize=8;startArrow=none;startFill=0;endArrow=diamond;endFill=1;strokeWidth=1;" edge="1" parent="1" source="33" target="8">
                    <mxGeometry relative="1" as="geometry"/>
                </mxCell>
                <mxCell id="33" value="&lt;p style=&quot;margin: 10px 0px 0px ; text-align: center&quot;&gt;&lt;span&gt;&lt;i style=&quot;font-weight: bold&quot;&gt;DbSearchResult&lt;/i&gt;&lt;/span&gt;&lt;br&gt;&lt;/p&gt;&lt;hr&gt;&lt;p style=&quot;margin: 0px ; margin-top: 4px ; margin-left: 4px ; text-align: left&quot;&gt;&lt;font style=&quot;font-size: 8px&quot;&gt;getTotalHits(): Long&lt;/font&gt;&lt;/p&gt;&lt;p style=&quot;margin: 0px ; margin-top: 4px ; margin-left: 4px ; text-align: left&quot;&gt;&lt;font style=&quot;font-size: 8px&quot;&gt;&lt;br&gt;&lt;/font&gt;&lt;/p&gt;" style="shape=rect;html=1;overflow=fill;whiteSpace=wrap;" vertex="1" parent="1">
                    <mxGeometry x="358" y="533" width="120" height="60" as="geometry"/>
                </mxCell>
                <mxCell id="57" value="Web IHM Kibana" style="swimlane;" vertex="1" parent="1">
                    <mxGeometry x="89" y="505" width="130" height="110" as="geometry">
                        <mxRectangle x="80" y="200" width="50" height="23" as="alternateBounds"/>
                    </mxGeometry>
                </mxCell>
                <mxCell id="58" style="edgeStyle=none;html=1;entryX=1;entryY=1;entryDx=0;entryDy=0;startArrow=none;startFill=0;endArrow=classicThin;endFill=1;strokeWidth=2;fillColor=#0050ef;strokeColor=#001DBC;exitX=0;exitY=0;exitDx=0;exitDy=55;exitPerimeter=0;" edge="1" parent="1" source="23" target="57">
                    <mxGeometry relative="1" as="geometry">
                        <mxPoint x="281" y="738.002105263158" as="sourcePoint"/>
                        <mxPoint x="111.00000000000011" y="796.1600000000001" as="targetPoint"/>
                    </mxGeometry>
                </mxCell>
                <mxCell id="81" value="HTTP" style="edgeLabel;html=1;align=center;verticalAlign=middle;resizable=0;points=[];fontSize=12;" vertex="1" connectable="0" parent="58">
                    <mxGeometry x="0.095" relative="1" as="geometry">
                        <mxPoint as="offset"/>
                    </mxGeometry>
                </mxCell>
                <mxCell id="75" style="edgeStyle=none;html=1;entryX=0.734;entryY=1.011;entryDx=0;entryDy=0;entryPerimeter=0;fontSize=8;startArrow=openThin;startFill=0;endArrow=openThin;endFill=0;strokeWidth=1;exitX=0.75;exitY=0;exitDx=0;exitDy=0;" edge="1" parent="1" source="70" target="74">
                    <mxGeometry relative="1" as="geometry"/>
                </mxCell>
                <mxCell id="70" value="&lt;p style=&quot;margin: 10px 0px 0px ; text-align: center&quot;&gt;SFTP Server&lt;/p&gt;" style="shape=rect;html=1;overflow=fill;whiteSpace=wrap;" vertex="1" parent="1">
                    <mxGeometry x="383" y="260" width="110" height="33" as="geometry"/>
                </mxCell>
                <mxCell id="72" style="edgeStyle=none;html=1;entryX=0;entryY=0.5;entryDx=0;entryDy=0;fontSize=8;startArrow=openThin;startFill=0;endArrow=openThin;endFill=0;strokeWidth=1;fillColor=#60a917;strokeColor=#2D7600;" edge="1" parent="1" source="71" target="70">
                    <mxGeometry relative="1" as="geometry"/>
                </mxCell>
                <mxCell id="80" value="SFTP" style="edgeLabel;html=1;align=center;verticalAlign=middle;resizable=0;points=[];fontSize=12;" vertex="1" connectable="0" parent="72">
                    <mxGeometry x="0.1874" y="-1" relative="1" as="geometry">
                        <mxPoint as="offset"/>
                    </mxGeometry>
                </mxCell>
                <mxCell id="71" value="SFTP Client (FileZilla)" style="swimlane;" vertex="1" parent="1">
                    <mxGeometry x="89" y="247" width="130" height="59" as="geometry">
                        <mxRectangle x="89" y="247" width="50" height="23" as="alternateBounds"/>
                    </mxGeometry>
                </mxCell>
                <mxCell id="74" value="&lt;font style=&quot;font-size: 12px&quot;&gt;Catalog Drive&lt;br&gt;(stores catalogs pictures etc.)&lt;/font&gt;" style="shape=cylinder3;whiteSpace=wrap;html=1;boundedLbl=1;backgroundOutline=1;size=15;fontSize=8;" vertex="1" parent="1">
                    <mxGeometry x="344" y="86" width="167" height="92" as="geometry"/>
                </mxCell>
                <mxCell id="78" style="edgeStyle=none;html=1;startArrow=none;startFill=0;endArrow=classicThin;endFill=1;strokeWidth=2;fillColor=#0050ef;strokeColor=#001DBC;" edge="1" parent="1" target="3">
                    <mxGeometry relative="1" as="geometry">
                        <mxPoint x="346" y="172" as="sourcePoint"/>
                        <mxPoint x="229" y="388" as="targetPoint"/>
                    </mxGeometry>
                </mxCell>
                <mxCell id="79" value="HTTP" style="edgeLabel;html=1;align=center;verticalAlign=middle;resizable=0;points=[];fontSize=12;" vertex="1" connectable="0" parent="78">
                    <mxGeometry x="0.0179" y="-2" relative="1" as="geometry">
                        <mxPoint x="21" y="-29" as="offset"/>
                    </mxGeometry>
                </mxCell>
                <mxCell id="84" value="Client Side" style="text;html=1;strokeColor=none;fillColor=none;align=center;verticalAlign=middle;whiteSpace=wrap;rounded=0;fontSize=24;" vertex="1" parent="1">
                    <mxGeometry x="47" y="51" width="140" height="30" as="geometry"/>
                </mxCell>
                <mxCell id="85" value="Server Side" style="text;html=1;strokeColor=none;fillColor=none;align=center;verticalAlign=middle;whiteSpace=wrap;rounded=0;fontSize=24;" vertex="1" parent="1">
                    <mxGeometry x="503" y="51" width="140" height="30" as="geometry"/>
                </mxCell>
                <mxCell id="90" style="edgeStyle=none;html=1;entryX=0;entryY=0;entryDx=80;entryDy=20;entryPerimeter=0;fontSize=8;startArrow=none;startFill=0;endArrow=none;endFill=0;strokeWidth=1;dashed=1;exitX=0;exitY=0.25;exitDx=0;exitDy=0;" edge="1" parent="1" source="26" target="23">
                    <mxGeometry relative="1" as="geometry">
                        <mxPoint x="533" y="608" as="sourcePoint"/>
                        <mxPoint x="575" y="923" as="targetPoint"/>
                    </mxGeometry>
                </mxCell>
                <mxCell id="91" value="Kibana&lt;br&gt;REST API&lt;br&gt;(config)" style="edgeLabel;html=1;align=center;verticalAlign=middle;resizable=0;points=[];fontSize=9;fontColor=#A6A6A6;" vertex="1" connectable="0" parent="90">
                    <mxGeometry x="-0.1509" y="2" relative="1" as="geometry">
                        <mxPoint x="-42" y="25" as="offset"/>
                    </mxGeometry>
                </mxCell>
                <mxCell id="92" value="&lt;p style=&quot;margin: 10px 0px 0px ; text-align: center&quot;&gt;&lt;span&gt;&lt;i style=&quot;font-weight: bold&quot;&gt;BytesToDbWriter&lt;/i&gt;&lt;/span&gt;&lt;br&gt;&lt;/p&gt;&lt;p style=&quot;margin: 0px ; margin-top: 4px ; margin-left: 4px ; text-align: left&quot;&gt;&lt;br&gt;&lt;/p&gt;" style="shape=rect;html=1;overflow=fill;whiteSpace=wrap;" vertex="1" parent="1">
                    <mxGeometry x="507" y="533" width="120" height="60" as="geometry"/>
                </mxCell>
                <mxCell id="93" style="edgeStyle=none;html=1;fontSize=8;startArrow=none;startFill=0;endArrow=none;endFill=0;strokeWidth=1;dashed=1;exitX=1;exitY=1;exitDx=0;exitDy=0;" edge="1" parent="1" source="33">
                    <mxGeometry relative="1" as="geometry">
                        <mxPoint x="569.5142857142857" y="603" as="sourcePoint"/>
                        <mxPoint x="567" y="635" as="targetPoint"/>
                    </mxGeometry>
                </mxCell>
            </root>
        </mxGraphModel>
    </diagram>
</mxfile>